<svg xmlns="http://www.w3.org/2000/svg" width="16.001" height="16.001" viewBox="0 0 16.001 16.001">
  <path id="dribbble" d="M522.837,5435.4a8.015,8.015,0,0,0-4.723-5.761,7.869,7.869,0,0,0-1.5-.466,8.063,8.063,0,0,0-3.222,0,7.872,7.872,0,0,0-1.5.466,7.992,7.992,0,0,0-4.886,7.371,8.054,8.054,0,0,0,.162,1.611,8,8,0,0,0,13.5,4.046,8.053,8.053,0,0,0,.976-1.184,7.958,7.958,0,0,0,1.2-2.863,8.052,8.052,0,0,0,0-3.221Zm-1.007,1.542a15.8,15.8,0,0,0-4.759-.224c-.048-.117-.1-.234-.147-.353-.142-.333-.3-.665-.454-.991a8.785,8.785,0,0,0,3.807-2.7A6.8,6.8,0,0,1,521.83,5436.946Zm-2.318-5.06a7.439,7.439,0,0,1-3.569,2.474,34.651,34.651,0,0,0-2.554-3.986,6.822,6.822,0,0,1,6.123,1.512Zm-6.149-1.506h0l-.021.005Zm-1.279.455a41.032,41.032,0,0,1,2.537,3.937,25.21,25.21,0,0,1-6.308.833A6.839,6.839,0,0,1,512.085,5430.835Zm-3.917,6.178c0-.073,0-.145.006-.216a25.053,25.053,0,0,0,7.014-.973c.2.383.383.772.554,1.161-.09.026-.18.053-.269.082a10.809,10.809,0,0,0-5.557,4.51.007.007,0,0,1,0,0A6.812,6.812,0,0,1,508.168,5437.014Zm6.833,6.833a6.8,6.8,0,0,1-4.352-1.565c.09.073.153.12.153.12a9.257,9.257,0,0,1,5.362-4.268l.045-.014a28.433,28.433,0,0,1,1.46,5.188A6.807,6.807,0,0,1,515,5443.846Zm3.818-1.165a29.5,29.5,0,0,0-1.33-4.88,9.907,9.907,0,0,1,4.258.3A6.836,6.836,0,0,1,518.818,5442.681Z" transform="translate(-507 -5429.014)" fill="#fff"/>
</svg>
