<svg xmlns="http://www.w3.org/2000/svg" width="16" height="13.753" viewBox="0 0 16 13.753">
  <path id="google_plus" data-name="google plus" d="M460.5,5433.716v2.439h-1v-2.439H457v-1h2.5v-2.439h1v2.439H463v1Zm-6.915-2.471a2.561,2.561,0,0,1,1.407,2.331,2.709,2.709,0,0,1-1.239,2.1c-.681.522-.81.741-.81,1.186,0,.378.729,1.023,1.111,1.289a2.849,2.849,0,0,1,1.444,2.693c0,1.5-1.444,3.169-4.116,3.169-2.344,0-4.383-1.121-4.383-2.618,0-1.521,1.866-2.987,4.21-2.987.255,0,.489-.011.731-.011a1.611,1.611,0,0,1-.574-1.151,1.715,1.715,0,0,1,.214-.784c-.127.009-.257-.012-.391-.012a3.061,3.061,0,0,1-3.214-3.058c0-1.631,1.781-3.132,3.673-3.132h4.22l-.944.983Zm-1.93,7.552c-1.62-.016-3.071.971-3.071,2.156,0,1.21,1.17,2.095,2.79,2.095,2.277,0,3.071-.823,3.071-2.032a1.827,1.827,0,0,0-.052-.428c-.178-.685-.809-1.024-1.688-1.624A3.633,3.633,0,0,0,451.656,5438.8Zm1.82-5.2a2.819,2.819,0,0,0-2.355-2.559c-1.087-.032-1.816,1.041-1.628,2.443a2.821,2.821,0,0,0,2.308,2.6C452.887,5436.108,453.663,5435,453.475,5433.6Z" transform="translate(-447 -5430.263)" fill="#fff"/>
</svg>
