<svg xmlns="http://www.w3.org/2000/svg" width="12.246" height="16.036" viewBox="0 0 12.246 16.036">
  <path id="pinterest" d="M423.844,5439.423c-.131.521-.262,1.066-.4,1.6a12.218,12.218,0,0,1-.449,1.543,7.894,7.894,0,0,1-1.277,2.2c-.359.417-.283.25-.391.228-.083-.017-.09-.1-.106-.215a12.046,12.046,0,0,1,0-2.087,11.275,11.275,0,0,1,.367-2.169c.3-1.291.592-2.554.9-3.852.02-.087.075-.229.056-.278a4.017,4.017,0,0,1-.268-1.063,3.377,3.377,0,0,1,.087-1.214,2,2,0,0,1,1.184-1.461,1.358,1.358,0,0,1,1.084.083,1.178,1.178,0,0,1,.542.777,2.809,2.809,0,0,1-.05,1.183c-.167.761-.386,1.333-.586,2.068a2.275,2.275,0,0,0-.118,1.133,1.317,1.317,0,0,0,.53.8,1.54,1.54,0,0,0,1.015.285,2.219,2.219,0,0,0,1.657-.98,5.8,5.8,0,0,0,1.047-2.929,7.208,7.208,0,0,0,.044-1.259,3.428,3.428,0,0,0-.7-1.948,3.3,3.3,0,0,0-1.57-1.069,5.2,5.2,0,0,0-2.343-.145,4.148,4.148,0,0,0-3.071,2.207,4.428,4.428,0,0,0-.523,2.132,2.767,2.767,0,0,0,.424,1.562c.083.125.205.229.287.373.115.2-.018.508-.075.728-.069.266-.076.633-.386.639a.941.941,0,0,1-.4-.152,3.2,3.2,0,0,1-1.514-2.333,5.589,5.589,0,0,1,0-2.025,5.757,5.757,0,0,1,2.747-3.838,6.524,6.524,0,0,1,2.442-.842c.318-.046.646-.065,1-.082a6.015,6.015,0,0,1,2.7.506,5.527,5.527,0,0,1,1.863,1.34,5.076,5.076,0,0,1,1.146,2.069,4.981,4.981,0,0,1,.249,1.43,8.557,8.557,0,0,1-.193,1.479,5.833,5.833,0,0,1-2.4,4.037,4.145,4.145,0,0,1-1.1.505,4.009,4.009,0,0,1-1.4.176,2.869,2.869,0,0,1-1.24-.36A2.051,2.051,0,0,1,423.844,5439.423Z" transform="translate(-418.749 -5429.012)" fill="#fff"/>
</svg>
