<svg xmlns="http://www.w3.org/2000/svg" width="10.002" height="16.009" viewBox="0 0 10.002 16.009">
  <path id="tumblr" d="M550.009,5444.145a9.6,9.6,0,0,1-1.849.677,7.781,7.781,0,0,1-1.79.195,4.857,4.857,0,0,1-1.717-.276,4.168,4.168,0,0,1-1.431-.791,2.88,2.88,0,0,1-.823-1.091,4.762,4.762,0,0,1-.229-1.677v-5.614h-2.163V5433.3a5.6,5.6,0,0,0,1.8-.879,4.349,4.349,0,0,0,1.075-1.375,6.2,6.2,0,0,0,.558-2.039H545.7v3.7h3.682v2.857H545.7v4.1a7.015,7.015,0,0,0,.086,1.727,1.479,1.479,0,0,0,.607.692,2.3,2.3,0,0,0,1.208.318,4.342,4.342,0,0,0,2.406-.79Z" transform="translate(-540.007 -5429.008)" fill="#fff"/>
</svg>
