<svg xmlns="http://www.w3.org/2000/svg" width="16" height="12.987" viewBox="0 0 16 12.987">
  <path id="twitter" d="M367.883,5430.515a3.376,3.376,0,0,1,2.595,1.03,5.324,5.324,0,0,0,1.682-.567l.408-.224a3.284,3.284,0,0,1-1.065,1.541,1.548,1.548,0,0,1-.36.255v.008a6.156,6.156,0,0,0,1.858-.5v.007a5.285,5.285,0,0,1-1.113,1.277l-.512.407a9.4,9.4,0,0,1-.152,2.108,9.175,9.175,0,0,1-6.43,7.257,9.815,9.815,0,0,1-4.645.192,11.976,11.976,0,0,1-1.93-.63,7.654,7.654,0,0,1-.929-.479l-.288-.176a5.352,5.352,0,0,0,1.049.04c.323-.052.639-.038.937-.1a6.705,6.705,0,0,0,1.97-.71,3.637,3.637,0,0,0,.889-.583,2.792,2.792,0,0,1-.977-.176,3.3,3.3,0,0,1-2.082-2.1c.322.035,1.249.119,1.465-.064a2.4,2.4,0,0,1-1.073-.431,3.159,3.159,0,0,1-1.546-2.811l.336.16a3.6,3.6,0,0,0,.689.192.984.984,0,0,0,.448.039h-.016c-.165-.192-.435-.32-.6-.526a3.355,3.355,0,0,1-.737-2.978,3.811,3.811,0,0,1,.352-.854l.016.008a2.012,2.012,0,0,0,.3.343,5.974,5.974,0,0,0,.977.934,9.663,9.663,0,0,0,4.012,1.94,6.3,6.3,0,0,0,1.473.192,3.051,3.051,0,0,1,.016-1.541,3.236,3.236,0,0,1,1.858-2.2,3.957,3.957,0,0,1,.729-.223Z" transform="translate(-357 -5430.514)" fill="#fa7c30"/>
</svg>
