<svg xmlns="http://www.w3.org/2000/svg" xmlns:xlink="http://www.w3.org/1999/xlink" width="413.501" height="660" viewBox="0 0 413.501 660">
  <defs>
    <filter id="Контур_2" x="90.354" y="252.811" width="254.495" height="151.819" filterUnits="userSpaceOnUse">
      <feOffset dx="1.728" dy="1.728" input="SourceAlpha"/>
      <feGaussianBlur stdDeviation="4.32" result="blur"/>
      <feFlood flood-color="#232628" flood-opacity="0.102"/>
      <feComposite operator="in" in2="blur"/>
      <feComposite in="SourceGraphic"/>
    </filter>
    <linearGradient id="linear-gradient" x1="0.304" y1="0.019" x2="0.746" y2="1.105" gradientUnits="objectBoundingBox">
      <stop offset="0" stop-color="#ffdf40"/>
      <stop offset="1" stop-color="#ff8359"/>
    </linearGradient>
    <linearGradient id="linear-gradient-2" x1="-1.831" y1="-1.34" x2="0.953" y2="1.122" gradientUnits="objectBoundingBox">
      <stop offset="0" stop-color="#46eeaa"/>
      <stop offset="1" stop-color="#2cbfc7"/>
    </linearGradient>
    <linearGradient id="linear-gradient-3" x1="-0.469" y1="-0.552" x2="1.719" y2="1.825" xlink:href="#linear-gradient-2"/>
    <linearGradient id="linear-gradient-4" x1="-1.108" y1="-0.502" x2="1.403" y2="1.351" xlink:href="#linear-gradient-2"/>
    <linearGradient id="linear-gradient-5" x1="0.055" y1="0.097" x2="2.028" y2="1.887" xlink:href="#linear-gradient-2"/>
    <linearGradient id="linear-gradient-6" x1="0" y1="0.5" x2="1" y2="0.5" xlink:href="#linear-gradient-2"/>
    <linearGradient id="linear-gradient-7" x1="-0.431" y1="-0.052" x2="5.886" y2="2.758" gradientUnits="objectBoundingBox">
      <stop offset="0" stop-color="#aff57a"/>
      <stop offset="1" stop-color="#54d169"/>
    </linearGradient>
    <linearGradient id="linear-gradient-9" x1="-1.28" y1="-0.43" x2="9.758" y2="4.48" xlink:href="#linear-gradient-7"/>
    <linearGradient id="linear-gradient-11" x1="-2.331" y1="-0.897" x2="5.739" y2="2.692" xlink:href="#linear-gradient-7"/>
    <linearGradient id="linear-gradient-13" x1="-0.146" y1="0.075" x2="7.789" y2="3.605" xlink:href="#linear-gradient-7"/>
    <linearGradient id="linear-gradient-15" x1="-1.664" y1="-0.6" x2="9.374" y2="4.31" xlink:href="#linear-gradient-7"/>
    <linearGradient id="linear-gradient-17" x1="-3.571" y1="-1.449" x2="9.857" y2="4.526" xlink:href="#linear-gradient-7"/>
    <linearGradient id="linear-gradient-19" x1="-0.431" y1="-0.052" x2="5.886" y2="2.758" xlink:href="#linear-gradient-7"/>
    <linearGradient id="linear-gradient-21" x1="-1.28" y1="-0.43" x2="9.757" y2="4.48" xlink:href="#linear-gradient-7"/>
    <linearGradient id="linear-gradient-23" x1="-2.331" y1="-0.897" x2="5.738" y2="2.693" xlink:href="#linear-gradient-7"/>
    <linearGradient id="linear-gradient-25" x1="-0.146" y1="0.075" x2="7.79" y2="3.605" xlink:href="#linear-gradient-7"/>
    <linearGradient id="linear-gradient-27" x1="-1.664" y1="-0.6" x2="9.374" y2="4.31" xlink:href="#linear-gradient-7"/>
    <linearGradient id="linear-gradient-29" x1="-3.571" y1="-1.449" x2="9.858" y2="4.525" xlink:href="#linear-gradient-7"/>
    <linearGradient id="linear-gradient-31" x1="-0.431" y1="-0.052" x2="5.886" y2="2.758" xlink:href="#linear-gradient-7"/>
    <linearGradient id="linear-gradient-33" x1="-1.28" y1="-0.43" x2="9.758" y2="4.48" xlink:href="#linear-gradient-7"/>
    <linearGradient id="linear-gradient-35" x1="-2.331" y1="-0.897" x2="5.739" y2="2.692" xlink:href="#linear-gradient-7"/>
    <linearGradient id="linear-gradient-37" x1="-0.146" y1="0.075" x2="7.791" y2="3.605" xlink:href="#linear-gradient-7"/>
    <linearGradient id="linear-gradient-39" x1="-1.664" y1="-0.6" x2="9.375" y2="4.31" xlink:href="#linear-gradient-7"/>
    <linearGradient id="linear-gradient-41" x1="-3.572" y1="-1.449" x2="9.858" y2="4.525" xlink:href="#linear-gradient-7"/>
    <linearGradient id="linear-gradient-42" x1="0.189" y1="-2.488" x2="0.675" y2="1.498" xlink:href="#linear-gradient-7"/>
    <linearGradient id="linear-gradient-43" x1="0.277" y1="-0.004" x2="0.905" y2="1.417" xlink:href="#linear-gradient"/>
    <linearGradient id="linear-gradient-44" x1="0.171" y1="-2.17" x2="0.766" y2="2.659" xlink:href="#linear-gradient"/>
    <linearGradient id="linear-gradient-45" x1="0.239" y1="-2.665" x2="0.963" y2="6.127" xlink:href="#linear-gradient"/>
    <linearGradient id="linear-gradient-46" x1="0.277" y1="-0.004" x2="0.905" y2="1.417" xlink:href="#linear-gradient"/>
    <linearGradient id="linear-gradient-47" x1="0.171" y1="-2.171" x2="0.766" y2="2.659" xlink:href="#linear-gradient"/>
    <linearGradient id="linear-gradient-48" x1="0.239" y1="-2.665" x2="0.963" y2="6.126" xlink:href="#linear-gradient"/>
    <linearGradient id="linear-gradient-49" x1="0.277" y1="-0.004" x2="0.905" y2="1.417" xlink:href="#linear-gradient"/>
    <linearGradient id="linear-gradient-50" x1="0.171" y1="-2.171" x2="0.766" y2="2.659" xlink:href="#linear-gradient"/>
    <linearGradient id="linear-gradient-51" x1="0.239" y1="-2.665" x2="0.963" y2="6.126" xlink:href="#linear-gradient"/>
  </defs>
  <g id="Сгруппировать_103" data-name="Сгруппировать 103" transform="translate(-90.999 -120)">
    <path id="Контур_1" data-name="Контур 1" d="M504.5,780V120H111a20.059,20.059,0,0,0-20,20V760a20.059,20.059,0,0,0,20,20Z" fill="#33d2fd"/>
    <g transform="matrix(1, 0, 0, 1, 91, 120)" filter="url(#Контур_2)">
      <path id="Контур_2-2" data-name="Контур 2" d="M413.912,495.946c-.091,0-.182,0-.272.006H399.226v0c-.021,0-.041,0-.061,0a7,7,0,1,1,0-14c.02,0,.04,0,.061,0v0h14.488c.18.012.318.015.447.015a7,7,0,0,0,.062-13.995H379.982v0c-.022,0-.043,0-.063,0a7,7,0,0,1,0-14c.02,0,.041,0,.063,0v0h14.737c.168.011.309.017.446.017a7,7,0,0,0,0-14h-.045l-.034,0H349.925a7,7,0,1,1,0-14c.022,0,.042,0,.064,0v0h11.488c.169.012.314.018.446.018a7,7,0,0,0,.063-13.995H318.745v0c-.021,0-.041,0-.062,0a7,7,0,0,1,0-14h11.8c.169.012.314.018.447.018a7,7,0,0,0,.062-14H266.507a7,7,0,0,0-.216,13.986c.092,0,.185-.006.28-.006a7,7,0,0,1,0,14c-.022,0-.042,0-.064,0v0H245.763a7,7,0,0,0,.062,13.995c.131,0,.28-.006.445-.018h12.74v0c.021,0,.041,0,.062,0a7,7,0,0,1,0,14H216.413l-.036,0h-.045a7,7,0,1,0,0,14c.131,0,.279-.006.445-.017h25.987v0c.02,0,.04,0,.063,0a7,7,0,0,1,0,14c-.023,0-.043,0-.063,0v0H223.017a7,7,0,0,0,.064,13.995c.129,0,.264,0,.445-.015h7.99v0c.021,0,.041,0,.063,0a7,7,0,0,1,0,14c-.022,0-.042,0-.063,0v0h-31.66c-.09-.006-.18-.006-.271-.006a7,7,0,1,0,0,13.995c.132,0,.28-.005.447-.017H413.464c.17.012.316.017.448.017a7,7,0,0,0,0-13.995Z" transform="translate(-91 -120)" fill="#fff" opacity="0.1"/>
    </g>
    <g id="Сгруппировать_3" data-name="Сгруппировать 3" opacity="0.7">
      <rect id="Прямоугольник_4" data-name="Прямоугольник 4" width="1.457" height="6.22" rx="0.729" transform="translate(426.933 384.615)" fill="#fff"/>
      <rect id="Прямоугольник_5" data-name="Прямоугольник 5" width="6.219" height="1.456" rx="0.728" transform="translate(424.553 386.997)" fill="#fff"/>
    </g>
    <g id="Сгруппировать_4" data-name="Сгруппировать 4" opacity="0.7">
      <rect id="Прямоугольник_6" data-name="Прямоугольник 6" width="2.548" height="10.884" rx="1.274" transform="translate(136.406 549.718)" fill="#fff"/>
      <rect id="Прямоугольник_7" data-name="Прямоугольник 7" width="10.882" height="2.546" rx="1.273" transform="translate(132.239 553.887)" fill="#fff"/>
    </g>
    <g id="Сгруппировать_5" data-name="Сгруппировать 5" opacity="0.7">
      <rect id="Прямоугольник_8" data-name="Прямоугольник 8" width="2.106" height="8.994" rx="1.053" transform="translate(180.296 316.67)" fill="#fff"/>
      <rect id="Прямоугольник_9" data-name="Прямоугольник 9" width="8.993" height="2.106" rx="1.053" transform="translate(176.853 320.115)" fill="#fff"/>
    </g>
    <path id="Контур_3" data-name="Контур 3" d="M389.669,377.845a.974.974,0,1,1-.973-.973A.971.971,0,0,1,389.669,377.845Z" fill="#fff"/>
    <path id="Контур_4" data-name="Контур 4" d="M132.516,385.4a1.7,1.7,0,1,1-1.7-1.705A1.7,1.7,0,0,1,132.516,385.4Z" fill="#fff" opacity="0.7"/>
    <path id="Контур_5" data-name="Контур 5" d="M255.134,335.81a.76.76,0,1,1-.761-.762A.759.759,0,0,1,255.134,335.81Z" fill="#fff" opacity="0.7"/>
    <path id="Контур_6" data-name="Контур 6" d="M189.167,415a.76.76,0,1,1-.76-.762A.758.758,0,0,1,189.167,415Z" fill="#fff" opacity="0.7"/>
    <path id="Контур_7" data-name="Контур 7" d="M337.139,500.312a41.28,41.28,0,1,1-41.28-41.28A41.279,41.279,0,0,1,337.139,500.312Z" fill="url(#linear-gradient)"/>
    <path id="Контур_8" data-name="Контур 8" d="M387.712,508.274c-.025,0-.052,0-.079,0h-9.114a2.011,2.011,0,1,1,0-4.022h2.313c.053,0,.091,0,.129,0a2.01,2.01,0,0,0,.018-4.02H375.3v0a.04.04,0,0,1-.018,0,2.011,2.011,0,1,1,0-4.022h.018v0h7.467c.049,0,.091.009.128.009a2.011,2.011,0,0,0,0-4.023H370.619a2.012,2.012,0,0,1,0-4.025l.017,0v0H374.3a.983.983,0,0,0,.128.006,2.01,2.01,0,0,0,.018-4.02h-5.979a2.011,2.011,0,0,1,0-4.022h.08a2.009,2.009,0,0,0-.062-4.017H337.617a2.009,2.009,0,0,0-1.217-3.6l-.016,0h-5.963a2.011,2.011,0,0,1,0-4.022.716.716,0,0,1,.08,0,2.011,2.011,0,0,0-.062-4.02h-18.53a2.012,2.012,0,0,0,.017,4.023c.039,0,.08,0,.128-.006h3.391a2.011,2.011,0,1,1,0,4.022H303a2.012,2.012,0,0,0,.017,4.023c.039,0,.08,0,.129-.006h3.319a2.011,2.011,0,0,1,0,4.023h-13a2.011,2.011,0,0,0,0,4.022c.039,0,.08,0,.128,0h4.254a2.01,2.01,0,0,1,0,4.02h-4.984a2.191,2.191,0,0,0-.61-.1h-18.53a2.013,2.013,0,0,0,.018,4.025c.038,0,.08,0,.129,0h3.39a2.011,2.011,0,1,1,0,4.022H264.82a2.01,2.01,0,0,0,.018,4.02c.038,0,.081,0,.128,0h3.32a2.009,2.009,0,1,1,0,4.019h-13a2.013,2.013,0,0,0,0,4.026c.039,0,.08,0,.128-.006h4.253a2.011,2.011,0,0,1,0,4.022h-9.858a2.012,2.012,0,0,0,.018,4.023c.037,0,.076,0,.128-.006h4.164v0a.034.034,0,0,1,.017,0,2.011,2.011,0,1,1,0,4.022h-4.159l-.078,0a2.011,2.011,0,1,0,0,4.023c.037,0,.08,0,.128-.006h61.331c.049,0,.091.006.129.006a2.011,2.011,0,0,0,0-4.023l-.078,0h-9.116a2.011,2.011,0,0,1,0-4.022.036.036,0,0,1,.018,0v0h2.3c.051,0,.09.006.127.006a2.012,2.012,0,0,0,.017-4.023h-5.69a2.011,2.011,0,1,1,0-4.022h7.485c.047,0,.089.006.127.006l0,0a2.011,2.011,0,0,0,1.1,3.7c.038,0,.08,0,.128-.006h18.138a.831.831,0,0,0,.086.006c.038,0,.08,0,.129-.006h42.978c.048,0,.091.006.129.006a.812.812,0,0,0,.085-.006h18.138c.05,0,.091.006.129.006a2.012,2.012,0,0,0,0-4.023Zm-55.119-27.711h-.017a1.991,1.991,0,0,1-1.264-.449,1.706,1.706,0,0,0,.3.027c.038,0,.079,0,.129,0l1.969-.211.6.211-.253.026c.466,0-2.341.437-2,.7Zm20.9-.425a2.011,2.011,0,0,1,0,4.022h-3.378a2.011,2.011,0,0,1,0-4.022h3.378Zm-60.542,16.4h-.708a2.012,2.012,0,0,1-.63-3.923h.71a2.012,2.012,0,0,1,.628,3.923Zm19.062,11.736h-4.16c-.025,0-.051,0-.077,0h0a2.01,2.01,0,0,0-1.1-3.7H294.393a2.009,2.009,0,0,1-.623-3.92h12.707a2.007,2.007,0,0,0,1.224,3.6c.036,0,.076,0,.127,0h4.181a2.011,2.011,0,1,1,0,4.022Z" fill="#fff" opacity="0.1"/>
    <g id="Сгруппировать_6" data-name="Сгруппировать 6">
      <path id="Контур_9" data-name="Контур 9" d="M335.446,509.941h49.226L360.02,467.924Z" fill="url(#linear-gradient-2)"/>
      <path id="Контур_10" data-name="Контур 10" d="M360.02,467.924l-24.574,42.018h24.613V467.988Z" fill="url(#linear-gradient-3)"/>
    </g>
    <g id="Сгруппировать_7" data-name="Сгруппировать 7">
      <path id="Контур_11" data-name="Контур 11" d="M294.873,509.941h54.595l-27.34-55.816Z" fill="url(#linear-gradient-4)"/>
      <path id="Контур_12" data-name="Контур 12" d="M322.127,454.125l-27.255,55.816h27.3V454.213Z" fill="url(#linear-gradient-5)"/>
    </g>
    <g id="Сгруппировать_37" data-name="Сгруппировать 37">
      <g id="Сгруппировать_30" data-name="Сгруппировать 30">
        <g id="Сгруппировать_29" data-name="Сгруппировать 29">
          <g id="Сгруппировать_10" data-name="Сгруппировать 10">
            <g id="Сгруппировать_9" data-name="Сгруппировать 9">
              <g id="Сгруппировать_8" data-name="Сгруппировать 8">
                <path id="Контур_13" data-name="Контур 13" d="M174.144,485.109a3.3,3.3,0,0,1-3.291-3.29h0V464.813h1.386v17.006a1.917,1.917,0,0,0,1.9,1.9h18.3v1.385Z" fill="#311163"/>
              </g>
            </g>
          </g>
          <g id="Сгруппировать_13" data-name="Сгруппировать 13">
            <g id="Сгруппировать_12" data-name="Сгруппировать 12">
              <g id="Сгруппировать_11" data-name="Сгруппировать 11">
                <path id="Контур_14" data-name="Контур 14" d="M171.5,475.814v-1.389l6.187,0a1.921,1.921,0,0,0,1.9-1.907h0V457.386h1.387v15.135a3.3,3.3,0,0,1-3.291,3.293H171.5Z" fill="#311163"/>
              </g>
            </g>
          </g>
          <g id="Сгруппировать_16" data-name="Сгруппировать 16">
            <g id="Сгруппировать_15" data-name="Сгруппировать 15">
              <g id="Сгруппировать_14" data-name="Сгруппировать 14">
                <path id="Контур_15" data-name="Контур 15" d="M186.454,484.23V470.783h1.386V484.23Z" fill="#311163"/>
              </g>
            </g>
          </g>
          <g id="Сгруппировать_19" data-name="Сгруппировать 19">
            <g id="Сгруппировать_18" data-name="Сгруппировать 18">
              <g id="Сгруппировать_17" data-name="Сгруппировать 17">
                <path id="Контур_16" data-name="Контур 16" d="M191.4,510.067V484.559h1.386v25.509Z" fill="#311163"/>
              </g>
            </g>
          </g>
          <g id="Сгруппировать_22" data-name="Сгруппировать 22">
            <g id="Сгруппировать_21" data-name="Сгруппировать 21">
              <g id="Сгруппировать_20" data-name="Сгруппировать 20">
                <path id="Контур_17" data-name="Контур 17" d="M184.218,485.109v-1.385h14.338a1.919,1.919,0,0,0,1.9-1.9h0V441.973h1.386v39.846a3.3,3.3,0,0,1-3.291,3.29H184.218Z" fill="#311163"/>
              </g>
            </g>
          </g>
          <g id="Сгруппировать_25" data-name="Сгруппировать 25">
            <g id="Сгруппировать_24" data-name="Сгруппировать 24">
              <g id="Сгруппировать_23" data-name="Сгруппировать 23">
                <path id="Контур_18" data-name="Контур 18" d="M201.6,472.084h9.77a1.921,1.921,0,0,0,1.9-1.907h0v-10.19h1.387v10.19a3.3,3.3,0,0,1-3.292,3.29h0l-9.77,0v-1.386Z" fill="#311163"/>
              </g>
            </g>
          </g>
          <g id="Сгруппировать_28" data-name="Сгруппировать 28">
            <g id="Сгруппировать_27" data-name="Сгруппировать 27">
              <g id="Сгруппировать_26" data-name="Сгруппировать 26">
                <path id="Контур_19" data-name="Контур 19" d="M194.2,466.77a3.3,3.3,0,0,1-3.291-3.293h0V447.946h1.386v15.531a1.92,1.92,0,0,0,1.905,1.907h6.678v1.386Z" fill="#311163"/>
              </g>
            </g>
          </g>
        </g>
      </g>
      <g id="Сгруппировать_31" data-name="Сгруппировать 31">
        <path id="Контур_20" data-name="Контур 20" d="M215.479,435.2a14.243,14.243,0,1,1-14.243-14.241A14.244,14.244,0,0,1,215.479,435.2Z" fill="url(#linear-gradient-6)"/>
        <path id="Контур_21" data-name="Контур 21" d="M186.994,435.2a14.244,14.244,0,0,0,14.242,14.244V420.961A14.241,14.241,0,0,0,186.994,435.2Z" fill="url(#linear-gradient-7)"/>
      </g>
      <g id="Сгруппировать_32" data-name="Сгруппировать 32">
        <path id="Контур_22" data-name="Контур 22" d="M199.831,443.353a8.152,8.152,0,1,1-8.153-8.151A8.153,8.153,0,0,1,199.831,443.353Z" fill="url(#linear-gradient-6)"/>
        <path id="Контур_23" data-name="Контур 23" d="M183.527,443.353a8.152,8.152,0,0,0,8.151,8.153V435.2A8.153,8.153,0,0,0,183.527,443.353Z" fill="url(#linear-gradient-9)"/>
      </g>
      <g id="Сгруппировать_33" data-name="Сгруппировать 33">
        <path id="Контур_24" data-name="Контур 24" d="M225.153,455.115A11.15,11.15,0,1,1,214,443.962,11.152,11.152,0,0,1,225.153,455.115Z" fill="url(#linear-gradient-6)"/>
        <path id="Контур_25" data-name="Контур 25" d="M202.853,455.115A11.15,11.15,0,0,0,214,466.266v-22.3A11.15,11.15,0,0,0,202.853,455.115Z" fill="url(#linear-gradient-11)"/>
      </g>
      <g id="Сгруппировать_34" data-name="Сгруппировать 34">
        <path id="Контур_26" data-name="Контур 26" d="M182.824,454.248a11.337,11.337,0,1,1-11.336-11.338A11.335,11.335,0,0,1,182.824,454.248Z" fill="url(#linear-gradient-6)"/>
        <path id="Контур_27" data-name="Контур 27" d="M160.15,454.248a11.336,11.336,0,0,0,11.338,11.335V442.91A11.336,11.336,0,0,0,160.15,454.248Z" fill="url(#linear-gradient-13)"/>
      </g>
      <g id="Сгруппировать_35" data-name="Сгруппировать 35">
        <path id="Контур_28" data-name="Контур 28" d="M188.4,462.492a8.152,8.152,0,1,1-8.152-8.15A8.153,8.153,0,0,1,188.4,462.492Z" fill="url(#linear-gradient-6)"/>
        <path id="Контур_29" data-name="Контур 29" d="M172.1,462.492a8.153,8.153,0,0,0,8.152,8.154v-16.3A8.15,8.15,0,0,0,172.1,462.492Z" fill="url(#linear-gradient-15)"/>
      </g>
      <g id="Сгруппировать_36" data-name="Сгруппировать 36">
        <path id="Контур_30" data-name="Контур 30" d="M193.9,472.869a6.7,6.7,0,1,1-6.7-6.7A6.7,6.7,0,0,1,193.9,472.869Z" fill="url(#linear-gradient-6)"/>
        <path id="Контур_31" data-name="Контур 31" d="M180.505,472.869a6.7,6.7,0,0,0,6.7,6.7v-13.4A6.7,6.7,0,0,0,180.505,472.869Z" fill="url(#linear-gradient-17)"/>
      </g>
    </g>
    <g id="Сгруппировать_67" data-name="Сгруппировать 67">
      <g id="Сгруппировать_60" data-name="Сгруппировать 60">
        <g id="Сгруппировать_59" data-name="Сгруппировать 59">
          <g id="Сгруппировать_40" data-name="Сгруппировать 40">
            <g id="Сгруппировать_39" data-name="Сгруппировать 39">
              <g id="Сгруппировать_38" data-name="Сгруппировать 38">
                <path id="Контур_32" data-name="Контур 32" d="M249.662,491.083a2.5,2.5,0,0,1-2.5-2.5h0v-12.9h1.051v12.9a1.456,1.456,0,0,0,1.446,1.444h13.871v1.052Z" fill="#311163"/>
              </g>
            </g>
          </g>
          <g id="Сгруппировать_43" data-name="Сгруппировать 43">
            <g id="Сгруппировать_42" data-name="Сгруппировать 42">
              <g id="Сгруппировать_41" data-name="Сгруппировать 41">
                <path id="Контур_33" data-name="Контур 33" d="M247.655,484.031V482.98h4.691a1.455,1.455,0,0,0,1.444-1.445h0V470.063h1.051l0,11.472a2.5,2.5,0,0,1-2.493,2.5h-4.691Z" fill="#311163"/>
              </g>
            </g>
          </g>
          <g id="Сгруппировать_46" data-name="Сгруппировать 46">
            <g id="Сгруппировать_45" data-name="Сгруппировать 45">
              <g id="Сгруппировать_44" data-name="Сгруппировать 44">
                <path id="Контур_34" data-name="Контур 34" d="M258.994,490.415v-10.2h1.051v10.2Z" fill="#311163"/>
              </g>
            </g>
          </g>
          <g id="Сгруппировать_49" data-name="Сгруппировать 49">
            <g id="Сгруппировать_48" data-name="Сгруппировать 48">
              <g id="Сгруппировать_47" data-name="Сгруппировать 47">
                <path id="Контур_35" data-name="Контур 35" d="M262.742,510V490.664h1.05V510Z" fill="#311163"/>
              </g>
            </g>
          </g>
          <g id="Сгруппировать_52" data-name="Сгруппировать 52">
            <g id="Сгруппировать_51" data-name="Сгруппировать 51">
              <g id="Сгруппировать_50" data-name="Сгруппировать 50">
                <path id="Контур_36" data-name="Контур 36" d="M257.3,491.083v-1.052h10.869a1.457,1.457,0,0,0,1.446-1.444h0V458.373h1.05v30.214a2.5,2.5,0,0,1-2.5,2.5H257.3Z" fill="#311163"/>
              </g>
            </g>
          </g>
          <g id="Сгруппировать_55" data-name="Сгруппировать 55">
            <g id="Сгруппировать_54" data-name="Сгруппировать 54">
              <g id="Сгруппировать_53" data-name="Сгруппировать 53">
                <path id="Контур_37" data-name="Контур 37" d="M270.477,481.2h7.407a1.457,1.457,0,0,0,1.446-1.444h0v-7.729h1.05v7.729a2.5,2.5,0,0,1-2.5,2.493h0l-7.407,0V481.2Z" fill="#311163"/>
              </g>
            </g>
          </g>
          <g id="Сгруппировать_58" data-name="Сгруппировать 58">
            <g id="Сгруппировать_57" data-name="Сгруппировать 57">
              <g id="Сгруппировать_56" data-name="Сгруппировать 56">
                <path id="Контур_38" data-name="Контур 38" d="M264.864,477.176a2.5,2.5,0,0,1-2.5-2.5h0V462.9h1.051V474.68a1.454,1.454,0,0,0,1.445,1.444h5.063v1.052Z" fill="#311163"/>
              </g>
            </g>
          </g>
        </g>
      </g>
      <g id="Сгруппировать_61" data-name="Сгруппировать 61">
        <path id="Контур_39" data-name="Контур 39" d="M281,453.24a10.8,10.8,0,1,1-10.8-10.8A10.8,10.8,0,0,1,281,453.24Z" fill="url(#linear-gradient-6)"/>
        <path id="Контур_40" data-name="Контур 40" d="M259.4,453.24a10.8,10.8,0,0,0,10.8,10.8v-21.6A10.8,10.8,0,0,0,259.4,453.24Z" fill="url(#linear-gradient-19)"/>
      </g>
      <g id="Сгруппировать_62" data-name="Сгруппировать 62">
        <path id="Контур_41" data-name="Контур 41" d="M269.136,459.422a6.18,6.18,0,1,1-6.18-6.182A6.182,6.182,0,0,1,269.136,459.422Z" fill="url(#linear-gradient-6)"/>
        <path id="Контур_42" data-name="Контур 42" d="M256.775,459.422a6.182,6.182,0,0,0,6.181,6.182V453.24A6.182,6.182,0,0,0,256.775,459.422Z" fill="url(#linear-gradient-21)"/>
      </g>
      <g id="Сгруппировать_63" data-name="Сгруппировать 63">
        <path id="Контур_43" data-name="Контур 43" d="M288.335,468.337a8.454,8.454,0,1,1-8.453-8.452A8.454,8.454,0,0,1,288.335,468.337Z" fill="url(#linear-gradient-6)"/>
        <path id="Контур_44" data-name="Контур 44" d="M271.427,468.337a8.454,8.454,0,0,0,8.455,8.455V459.885A8.454,8.454,0,0,0,271.427,468.337Z" fill="url(#linear-gradient-23)"/>
      </g>
      <g id="Сгруппировать_64" data-name="Сгруппировать 64">
        <path id="Контур_45" data-name="Контур 45" d="M256.242,467.681a8.6,8.6,0,1,1-8.6-8.6A8.594,8.594,0,0,1,256.242,467.681Z" fill="url(#linear-gradient-6)"/>
        <path id="Контур_46" data-name="Контур 46" d="M239.05,467.681a8.594,8.594,0,0,0,8.6,8.6V459.085A8.6,8.6,0,0,0,239.05,467.681Z" fill="url(#linear-gradient-25)"/>
      </g>
      <g id="Сгруппировать_65" data-name="Сгруппировать 65">
        <path id="Контур_47" data-name="Контур 47" d="M260.469,473.933a6.18,6.18,0,1,1-6.18-6.179A6.181,6.181,0,0,1,260.469,473.933Z" fill="url(#linear-gradient-6)"/>
        <path id="Контур_48" data-name="Контур 48" d="M248.109,473.933a6.18,6.18,0,0,0,6.18,6.181v-12.36A6.179,6.179,0,0,0,248.109,473.933Z" fill="url(#linear-gradient-27)"/>
      </g>
      <g id="Сгруппировать_66" data-name="Сгруппировать 66">
        <path id="Контур_49" data-name="Контур 49" d="M264.644,481.8a5.08,5.08,0,1,1-5.08-5.08A5.081,5.081,0,0,1,264.644,481.8Z" fill="url(#linear-gradient-6)"/>
        <path id="Контур_50" data-name="Контур 50" d="M254.484,481.8a5.079,5.079,0,0,0,5.08,5.08v-10.16A5.081,5.081,0,0,0,254.484,481.8Z" fill="url(#linear-gradient-29)"/>
      </g>
    </g>
    <g id="Сгруппировать_97" data-name="Сгруппировать 97">
      <g id="Сгруппировать_90" data-name="Сгруппировать 90">
        <g id="Сгруппировать_89" data-name="Сгруппировать 89">
          <g id="Сгруппировать_70" data-name="Сгруппировать 70">
            <g id="Сгруппировать_69" data-name="Сгруппировать 69">
              <g id="Сгруппировать_68" data-name="Сгруппировать 68">
                <path id="Контур_51" data-name="Контур 51" d="M417.483,494.118a2.108,2.108,0,0,1-2.1-2.1h0V481.148h.885v10.867a1.227,1.227,0,0,0,1.219,1.218h11.69v.885Z" fill="#311163"/>
              </g>
            </g>
          </g>
          <g id="Сгруппировать_73" data-name="Сгруппировать 73">
            <g id="Сгруппировать_72" data-name="Сгруппировать 72">
              <g id="Сгруппировать_71" data-name="Сгруппировать 71">
                <path id="Контур_52" data-name="Контур 52" d="M415.791,488.177v-.885h3.954a1.226,1.226,0,0,0,1.216-1.219h0V476.4h.887v9.668a2.108,2.108,0,0,1-2.1,2.1h-3.954Z" fill="#311163"/>
              </g>
            </g>
          </g>
          <g id="Сгруппировать_76" data-name="Сгруппировать 76">
            <g id="Сгруппировать_75" data-name="Сгруппировать 75">
              <g id="Сгруппировать_74" data-name="Сгруппировать 74">
                <path id="Контур_53" data-name="Контур 53" d="M425.347,493.556v-8.593h.886v8.593Z" fill="#311163"/>
              </g>
            </g>
          </g>
          <g id="Сгруппировать_79" data-name="Сгруппировать 79">
            <g id="Сгруппировать_78" data-name="Сгруппировать 78">
              <g id="Сгруппировать_77" data-name="Сгруппировать 77">
                <path id="Контур_54" data-name="Контур 54" d="M428.5,510.065v-16.3h.885v16.3Z" fill="#311163"/>
              </g>
            </g>
          </g>
          <g id="Сгруппировать_82" data-name="Сгруппировать 82">
            <g id="Сгруппировать_81" data-name="Сгруппировать 81">
              <g id="Сгруппировать_80" data-name="Сгруппировать 80">
                <path id="Контур_55" data-name="Контур 55" d="M423.918,494.118v-.885h9.163a1.226,1.226,0,0,0,1.216-1.218h0V466.553h.886v25.462a2.108,2.108,0,0,1-2.1,2.1h-9.163Z" fill="#311163"/>
              </g>
            </g>
          </g>
          <g id="Сгруппировать_85" data-name="Сгруппировать 85">
            <g id="Сгруппировать_84" data-name="Сгруппировать 84">
              <g id="Сгруппировать_83" data-name="Сгруппировать 83">
                <path id="Контур_56" data-name="Контур 56" d="M435.025,485.8h6.242a1.229,1.229,0,0,0,1.218-1.219h0v-6.512h.885v6.512a2.108,2.108,0,0,1-2.1,2.1h-6.242V485.8Z" fill="#311163"/>
              </g>
            </g>
          </g>
          <g id="Сгруппировать_88" data-name="Сгруппировать 88">
            <g id="Сгруппировать_87" data-name="Сгруппировать 87">
              <g id="Сгруппировать_86" data-name="Сгруппировать 86">
                <path id="Контур_57" data-name="Контур 57" d="M430.294,482.4a2.1,2.1,0,0,1-2.1-2.1h0V470.37h.885V480.3a1.228,1.228,0,0,0,1.218,1.219h4.266v.884l-4.266,0Z" fill="#311163"/>
              </g>
            </g>
          </g>
        </g>
      </g>
      <g id="Сгруппировать_91" data-name="Сгруппировать 91">
        <path id="Контур_58" data-name="Контур 58" d="M443.892,462.229a9.1,9.1,0,1,1-9.1-9.1A9.1,9.1,0,0,1,443.892,462.229Z" fill="url(#linear-gradient-6)"/>
        <path id="Контур_59" data-name="Контур 59" d="M425.693,462.229a9.1,9.1,0,0,0,9.1,9.1v-18.2A9.1,9.1,0,0,0,425.693,462.229Z" fill="url(#linear-gradient-31)"/>
      </g>
      <g id="Сгруппировать_92" data-name="Сгруппировать 92">
        <path id="Контур_60" data-name="Контур 60" d="M433.895,467.438a5.208,5.208,0,1,1-5.209-5.209A5.209,5.209,0,0,1,433.895,467.438Z" fill="url(#linear-gradient-6)"/>
        <path id="Контур_61" data-name="Контур 61" d="M423.478,467.438a5.208,5.208,0,0,0,5.208,5.209V462.229A5.208,5.208,0,0,0,423.478,467.438Z" fill="url(#linear-gradient-33)"/>
      </g>
      <g id="Сгруппировать_93" data-name="Сгруппировать 93">
        <path id="Контур_62" data-name="Контур 62" d="M450.074,474.952a7.124,7.124,0,1,1-7.124-7.125A7.124,7.124,0,0,1,450.074,474.952Z" fill="url(#linear-gradient-6)"/>
        <path id="Контур_63" data-name="Контур 63" d="M435.826,474.952a7.125,7.125,0,0,0,7.124,7.125v-14.25A7.125,7.125,0,0,0,435.826,474.952Z" fill="url(#linear-gradient-35)"/>
      </g>
      <g id="Сгруппировать_94" data-name="Сгруппировать 94">
        <path id="Контур_64" data-name="Контур 64" d="M423.029,474.4a7.244,7.244,0,1,1-7.245-7.243A7.247,7.247,0,0,1,423.029,474.4Z" fill="url(#linear-gradient-6)"/>
        <path id="Контур_65" data-name="Контур 65" d="M408.54,474.4a7.247,7.247,0,0,0,7.244,7.248V467.153A7.245,7.245,0,0,0,408.54,474.4Z" fill="url(#linear-gradient-37)"/>
      </g>
      <g id="Сгруппировать_95" data-name="Сгруппировать 95">
        <circle id="Эллипс_1" data-name="Эллипс 1" cx="5.208" cy="5.208" r="5.208" transform="translate(416.174 474.457)" fill="url(#linear-gradient-6)"/>
        <path id="Контур_66" data-name="Контур 66" d="M416.174,479.666a5.209,5.209,0,0,0,5.208,5.209V474.457A5.209,5.209,0,0,0,416.174,479.666Z" fill="url(#linear-gradient-39)"/>
      </g>
      <g id="Сгруппировать_96" data-name="Сгруппировать 96">
        <path id="Контур_67" data-name="Контур 67" d="M430.109,486.3a4.281,4.281,0,1,1-4.281-4.283A4.283,4.283,0,0,1,430.109,486.3Z" fill="url(#linear-gradient-6)"/>
        <path id="Контур_68" data-name="Контур 68" d="M421.547,486.3a4.282,4.282,0,0,0,4.281,4.28v-8.563A4.283,4.283,0,0,0,421.547,486.3Z" fill="url(#linear-gradient-41)"/>
      </g>
    </g>
    <path id="Контур_69" data-name="Контур 69" d="M432.334,517.143c-.106,0-.211,0-.316,0H415.235v0a.612.612,0,0,0-.074,0c-4.5,0-8.148,1.614-8.148,3.6s3.648,3.6,8.148,3.6H432.1c.211-.006.371-.009.52-.009,4.494,0,8.149,1.617,8.149,3.6,0,1.966-3.623,3.583-8.076,3.6H392.825v0c-.026,0-.049,0-.075,0-4.5,0-8.148,1.614-8.148,3.6s3.649,3.6,8.148,3.6h17.236c.2,0,.359-.006.519-.006,4.493,0,8.15,1.617,8.15,3.6s-3.657,3.6-8.15,3.6H357.826c-4.5,0-8.149,1.612-8.149,3.6s3.649,3.6,8.149,3.6h13.451c.2-.005.366-.005.52-.005,4.492,0,8.148,1.614,8.148,3.6,0,1.969-3.624,3.586-8.077,3.6H321.445c-4.5,0-8.15,1.611-8.15,3.6s3.65,3.6,8.15,3.6c.024,0,.048,0,.073,0v0h13.669c.2-.006.367-.009.52-.009,4.493,0,8.149,1.617,8.149,3.6s-3.623,3.586-8.076,3.6H260.69c-4.453-.017-8.076-1.632-8.076-3.6,0-1.916,3.5-3.519,7.823-3.6.107,0,.216.006.326.006,4.5,0,8.15-1.611,8.15-3.6s-3.65-3.6-8.15-3.6H236.534c-4.453-.018-8.077-1.635-8.077-3.6,0-1.986,3.656-3.6,8.148-3.6.154,0,.326,0,.521.005h14.906c4.5,0,8.148-1.611,8.148-3.6s-3.648-3.6-8.148-3.6H202.263c-4.494,0-8.15-1.614-8.15-3.6s3.656-3.6,8.15-3.6c.153,0,.325,0,.519.006h30.332c4.5,0,8.148-1.611,8.148-3.6s-3.647-3.6-8.148-3.6c-.025,0-.048,0-.073,0v0H210.047c-4.452-.018-8.075-1.632-8.075-3.6,0-1.986,3.656-3.6,8.149-3.6.152,0,.31,0,.519.009h9.377c4.5,0,8.149-1.615,8.149-3.6s-3.649-3.6-8.149-3.6a.58.58,0,0,0-.073,0v0H183.079c-.106,0-.21,0-.317,0-4.493,0-8.149-1.615-8.149-3.6s3.656-3.6,8.149-3.6c.153,0,.326,0,.52.008H431.814c.2-.006.368-.008.52-.008,4.493,0,8.147,1.617,8.147,3.6S436.827,517.143,432.334,517.143Z" fill="url(#linear-gradient-42)"/>
    <g id="Сгруппировать_98" data-name="Сгруппировать 98">
      <path id="Контур_70" data-name="Контур 70" d="M290.292,534.375l-.014,0v0h-2.917v0l-.015,0a1.755,1.755,0,1,0,0,3.51H290.2a.044.044,0,0,0,.019,0,.54.54,0,0,0,.069,0,1.755,1.755,0,0,0,0-3.51Z" fill="none"/>
      <path id="Контур_71" data-name="Контур 71" d="M302.283,537.513c.017.014.023.011.022,0Z" fill="none"/>
      <path id="Контур_72" data-name="Контур 72" d="M373.038,513.05c-.036,0-.072,0-.112,0h-3.7v0a.032.032,0,0,1-.016,0,1.755,1.755,0,0,1-1.111-3.114H256.858a1.755,1.755,0,0,0,.625,3.395.5.5,0,0,0,.067,0h7.939v0a.029.029,0,0,1,.016,0,1.755,1.755,0,0,1,0,3.51h-2.019c-.046,0-.079,0-.113,0a1.754,1.754,0,0,0-.015,3.507h4.967a1.755,1.755,0,0,1,0,3.51h-6.532c-.042,0-.078,0-.112,0a1.755,1.755,0,1,0,0,3.509H272.4a1.755,1.755,0,1,1,0,3.51h-3.211c-.041,0-.078,0-.111,0a1.754,1.754,0,0,0-.017,3.507h5.2v0l.015,0a1.755,1.755,0,1,1,0,3.51.525.525,0,0,1-.069,0,1.756,1.756,0,0,0,.054,3.51H301.2a1.752,1.752,0,0,0,1.06,3.137h5.219a1.755,1.755,0,0,1,0,3.51.533.533,0,0,1-.07,0,1.754,1.754,0,0,0,.054,3.507h16.169a1.755,1.755,0,0,0-.015-3.51c-.033,0-.07,0-.113.006h-2.96a1.755,1.755,0,0,1,0-3.51H331.4a1.755,1.755,0,0,0-.017-3.509c-.032,0-.068,0-.112,0h-2.895a1.755,1.755,0,0,1,0-3.51h11.331l.012,0a1.757,1.757,0,0,0,0-3.513c-.035,0-.07,0-.112.006h-3.7v0l-.017,0a1.755,1.755,0,0,1,0-3.51h4.35a1.761,1.761,0,0,0,.532.088h16.169a1.755,1.755,0,0,0-.016-3.51c-.032,0-.069,0-.112,0H353.86a1.755,1.755,0,1,1,0-3.51l.014,0v0h10.843a1.755,1.755,0,0,0-.015-3.509c-.033,0-.07,0-.112.005h-2.9a1.754,1.754,0,1,1,0-3.509h11.345a1.754,1.754,0,1,0,0-3.507Zm-82.746,24.835a.54.54,0,0,1-.069,0,.044.044,0,0,1-.019,0h-2.858a1.755,1.755,0,1,1,0-3.51l.015,0v0h2.917v0l.014,0a1.755,1.755,0,0,1,0,3.51Zm11.991-.372h.022C302.306,537.524,302.3,537.527,302.283,537.513Z" fill="#fff" opacity="0.1"/>
    </g>
    <path id="Контур_73" data-name="Контур 73" d="M435.271,308.6a.761.761,0,1,1-.76-.762A.757.757,0,0,1,435.271,308.6Z" fill="#fff" opacity="0.7"/>
    <g id="Сгруппировать_99" data-name="Сгруппировать 99">
      <circle id="Эллипс_2" data-name="Эллипс 2" cx="24.088" cy="24.088" r="24.088" transform="translate(351.682 335.81)" fill="#fcfcfd"/>
      <path id="Контур_74" data-name="Контур 74" d="M395.581,355.04c1.7,4.1.4,8.531-2.912,9.911s-7.377-.826-9.08-4.919-.4-8.531,2.91-9.908S393.877,350.947,395.581,355.04Z" fill="#dfe7ea"/>
      <path id="Контур_75" data-name="Контур 75" d="M384.005,345.674c-.691,2.177-3.671,3.17-6.654,2.221s-4.841-3.481-4.149-5.655,3.671-3.17,6.653-2.223S384.7,343.5,384.005,345.674Z" fill="#dfe7ea"/>
    </g>
    <g id="Сгруппировать_100" data-name="Сгруппировать 100">
      <circle id="Эллипс_3" data-name="Эллипс 3" cx="10.392" cy="10.392" r="10.392" transform="translate(187.315 373.122)" fill="url(#linear-gradient-43)"/>
      <path id="Контур_76" data-name="Контур 76" d="M206.253,381.416c.735,1.77.173,3.683-1.255,4.277s-3.183-.357-3.918-2.121-.172-3.679,1.255-4.274S205.518,379.652,206.253,381.416Z" fill="url(#linear-gradient-44)"/>
      <path id="Контур_77" data-name="Контур 77" d="M201.26,377.376c-.3.94-1.584,1.371-2.871.961s-2.088-1.5-1.79-2.44,1.584-1.369,2.871-.958S201.557,376.439,201.26,377.376Z" fill="url(#linear-gradient-45)"/>
    </g>
    <g id="Сгруппировать_101" data-name="Сгруппировать 101">
      <path id="Контур_78" data-name="Контур 78" d="M486.225,449.106a10.391,10.391,0,1,1-10.392-10.388A10.391,10.391,0,0,1,486.225,449.106Z" fill="url(#linear-gradient-46)"/>
      <path id="Контур_79" data-name="Контур 79" d="M484.38,447.012c.735,1.766.172,3.679-1.257,4.274s-3.181-.354-3.917-2.121-.171-3.68,1.255-4.274S483.644,445.248,484.38,447.012Z" fill="url(#linear-gradient-47)"/>
      <path id="Контур_80" data-name="Контур 80" d="M479.386,442.972c-.3.937-1.583,1.368-2.87.958s-2.088-1.5-1.79-2.438,1.583-1.368,2.87-.961S479.684,442.031,479.386,442.972Z" fill="url(#linear-gradient-48)"/>
    </g>
    <g id="Сгруппировать_102" data-name="Сгруппировать 102">
      <path id="Контур_81" data-name="Контур 81" d="M114.52,442.547a8.2,8.2,0,1,1-8.2-8.2A8.2,8.2,0,0,1,114.52,442.547Z" fill="url(#linear-gradient-49)"/>
      <path id="Контур_82" data-name="Контур 82" d="M113.063,440.895a2.262,2.262,0,1,1-3.092-1.676A2.514,2.514,0,0,1,113.063,440.895Z" fill="url(#linear-gradient-50)"/>
      <path id="Контур_83" data-name="Контур 83" d="M109.122,437.7a1.737,1.737,0,0,1-2.267.756c-1.016-.322-1.649-1.187-1.414-1.925a1.734,1.734,0,0,1,2.266-.759C108.723,436.1,109.356,436.963,109.122,437.7Z" fill="url(#linear-gradient-51)"/>
    </g>
  </g>
</svg>
